HIERARCHY
ROOT RootJoint
{
    OFFSET   0.000000   0.000000   0.000000
    CHANNELS 6 Xposition Yposition Zposition Xrotation Yrotation Zrotation
    JOINT pelvis_lowerback
    {
        OFFSET   0.000000   0.093605   0.000000
        CHANNELS 3 Xrotation Yrotation Zrotation
        JOINT lowerback_torso
        {
            OFFSET   0.000000   0.100000   0.000000
            CHANNELS 3 Xrotation Yrotation Zrotation
            JOINT torso_head
            {
                OFFSET   0.000000   0.282350   0.000000
                CHANNELS 3 Xrotation Yrotation Zrotation
                End Site
                {
                    OFFSET   0.000000   0.192650   0.000000
                }
            }
            JOINT rTorso_Clavicle
            {
                OFFSET  -0.001000   0.157500   0.000000
                CHANNELS 3 Xrotation Yrotation Zrotation
                JOINT rShoulder
                {
                    OFFSET  -0.117647   0.000000   0.000000
                    CHANNELS 3 Xrotation Yrotation Zrotation
                    JOINT rElbow
                    {
                        OFFSET  -0.245000   0.000000   0.000000
                        CHANNELS 3 Xrotation Yrotation Zrotation
                        JOINT rWrist
                        {
                            OFFSET  -0.240000   0.000000   0.000000
                            CHANNELS 3 Xrotation Yrotation Zrotation
                            End Site
                            {
                                OFFSET  -0.116353  -0.002500   0.000000
                            }
                        }
                    }
                }
            }
            JOINT lTorso_Clavicle
            {
                OFFSET   0.001000   0.157500   0.000000
                CHANNELS 3 Xrotation Yrotation Zrotation
                JOINT lShoulder
                {
                    OFFSET   0.117647   0.000000   0.000000
                    CHANNELS 3 Xrotation Yrotation Zrotation
                    JOINT lElbow
                    {
                        OFFSET   0.245000   0.000000   0.000000
                        CHANNELS 3 Xrotation Yrotation Zrotation
                        JOINT lWrist
                        {
                            OFFSET   0.240000   0.000000   0.000000
                            CHANNELS 3 Xrotation Yrotation Zrotation
                            End Site
                            {
                                OFFSET   0.116353  -0.002500   0.000000
                            }
                        }
                    }
                }
            }
        }
    }
    JOINT rHip
    {
        OFFSET  -0.100000  -0.051395   0.000000
        CHANNELS 3 Xrotation Yrotation Zrotation
        JOINT rKnee
        {
            OFFSET   0.000000  -0.410000   0.000000
            CHANNELS 3 Xrotation Yrotation Zrotation
            JOINT rAnkle
            {
                OFFSET   0.000000  -0.390000   0.000000
                CHANNELS 3 Xrotation Yrotation Zrotation
                JOINT rToeJoint
                {
                    OFFSET   0.000000  -0.050000   0.130000
                    CHANNELS 3 Xrotation Yrotation Zrotation
                    End Site
                    {
                        OFFSET  -0.010000   0.002000   0.060000
                    }
                }
            }
        }
    }
    JOINT lHip
    {
        OFFSET   0.100000  -0.051395   0.000000
        CHANNELS 3 Xrotation Yrotation Zrotation
        JOINT lKnee
        {
            OFFSET   0.000000  -0.410000   0.000000
            CHANNELS 3 Xrotation Yrotation Zrotation
            JOINT lAnkle
            {
                OFFSET   0.000000  -0.390000   0.000000
                CHANNELS 3 Xrotation Yrotation Zrotation
                JOINT lToeJoint
                {
                    OFFSET   0.000000  -0.050000   0.130000
                    CHANNELS 3 Xrotation Yrotation Zrotation
                    End Site
                    {
                        OFFSET   0.010000   0.002000   0.060000
                    }
                }
            }
        }
    }
}
MOTION
Frames: 10
Frame Time:   0.008333
 -2.376719   0.925631   3.975860   0.000000   0.000000   0.000000   0.000000   0.000000   0.000000   0.000000   0.000000   0.000000   0.000000   0.000000   0.000000   0.000000   0.000000   0.000000   0.000000   0.000000   0.000000   0.000000   0.000000   0.000000   0.000000   0.000000   0.000000   0.000000   0.000000   0.000000   0.000000   0.000000   0.000000   0.000000   0.000000   0.000000   0.000000   0.000000   0.000000   0.000000   0.000000   0.000000   0.000000   0.000000   0.000000   0.000000   0.000000   0.000000   0.000000   0.000000   0.000000   0.000000   0.000000   0.000000   0.000000   0.000000   0.000000   0.000000   0.000000   0.000000   0.000000   0.000000   0.000000
 -2.376427   0.926187   3.976144   0.387828   0.043531   0.088178  -0.536654   0.023827  -0.088827  -0.085431  -0.160602   0.034081   0.037840   0.134204  -0.037697   0.269274  -0.430994   0.454161   1.133914   0.520247   1.918199   0.015083   0.712813  -0.007339   0.478981  -0.362844  -2.650791   0.192878   0.424779  -0.341194   1.229187  -0.245569  -2.023918   0.017234  -0.841728   0.008828   0.468898   0.281609   2.442616  -0.619250   0.153086  -0.245187   0.753879   0.001041   0.001278  -0.726525  -0.180273   0.005849  -0.131423  -0.000171  -0.000019  -0.553387  -0.242340  -0.046115   0.607667  -0.000232  -0.001057  -0.878316   0.250455   0.079490   0.283208  -0.000296   0.000126
 -2.376004   0.927143   3.976814   0.749395   0.106066   0.173804  -1.123165   0.032537  -0.154300  -0.233256  -0.330091   0.081729   0.062624   0.261381  -0.076564   0.533267  -0.816167   1.621818   2.230374   1.098863   4.407555   0.035059   1.408011  -0.011871   0.992712  -0.509935  -4.582343   0.388294   0.798911  -1.383821   2.428503  -0.562357  -4.614422   0.039571  -1.658194   0.014446   0.976403   0.329440   4.139343  -1.166658   0.306589  -0.598353   1.538375   0.002704   0.002427  -1.405694  -0.350693   0.008037  -0.287371  -0.000495  -0.000076  -1.013270  -0.479215  -0.035063   1.238202  -0.000755  -0.001805  -1.703928   0.484310   0.157213   0.487762  -0.000543   0.000206
 -2.375501   0.928098   3.977751   1.091135   0.174452   0.245398  -1.737909   0.032265  -0.192006  -0.426793  -0.497544   0.146004   0.073212   0.379991  -0.112858   0.788886  -1.160845   3.222065   3.280673   1.726780   7.270603   0.054535   2.059480  -0.014198   1.485715  -0.593323  -5.684499   0.579843   1.127275  -2.852520   3.591543  -0.947391  -7.572100   0.061160  -2.425411   0.017623   1.464992   0.303220   5.030230  -1.649481   0.453885  -1.022151   2.293014   0.004547   0.003218  -2.039126  -0.510980   0.007458  -0.435327  -0.000849  -0.000130  -1.393352  -0.700548   0.038501   1.851389  -0.001434  -0.002249  -2.474812   0.702380   0.233032   0.667300  -0.000777   0.000265
 -2.374950   0.928759   3.978850   1.415063   0.240407   0.303615  -2.362727   0.026091  -0.205658  -0.650078  -0.660344   0.225442   0.073322   0.490767  -0.146339   1.041598  -1.478136   5.065091   4.285275   2.404689  10.383332   0.071171   2.666455  -0.015140   1.954240  -0.656339  -6.168319   0.770664   1.425923  -4.558368   4.719671  -1.400182 -10.772193   0.079450  -3.142704   0.019278   1.930419   0.249377   5.334411  -2.082435   0.595056  -1.497643   3.008386   0.006321   0.003657  -2.630528  -0.661555   0.004663  -0.576095  -0.001192  -0.000172  -1.710185  -0.907264   0.165928   2.440086  -0.002163  -0.002488  -3.194706   0.905778   0.306827   0.826592  -0.000979   0.000298
 -2.374375   0.928914   3.980031   1.720521   0.298774   0.350970  -2.983377   0.015444  -0.199005  -0.888782  -0.817567   0.317648   0.066303   0.594248  -0.177220   1.294565  -1.774550   7.024728   5.243433   3.133403  13.661009   0.084107   3.230623  -0.015278   2.398616  -0.713399  -6.233041   0.962595   1.703131  -6.375904   5.812176  -1.920648 -14.129452   0.093534  -3.811795   0.020052   2.372473   0.184865   5.250232  -2.475747   0.730554  -2.011142   3.682959   0.007884   0.003799  -3.182796  -0.802848   0.000096  -0.709346  -0.001499  -0.000197  -1.975634  -1.100644   0.337006   3.002253  -0.002867  -0.002599  -3.866976   1.095405   0.378413   0.968742  -0.001140   0.000306
 -2.373793   0.928405   3.981230   2.006922   0.346188   0.389927  -3.589273   0.001064  -0.175203  -1.131867  -0.969006   0.420454   0.054557   0.690910  -0.205669   1.548816  -2.051407   9.017884   6.153234   3.914300  17.046287   0.093311   3.754788  -0.014998   2.820471  -0.768592  -6.026998   1.155871   1.961019  -8.222779   6.866652  -2.509738 -17.586070   0.103418  -4.435669   0.020365   2.792332   0.115212   4.922983  -2.837057   0.860836  -2.551438   4.316954   0.009163   0.003709  -3.698537  -0.935300  -0.005872  -0.834721  -0.001752  -0.000206  -2.199042  -1.281758   0.542286   3.537095  -0.003499  -0.002631  -4.494749   1.272118   0.447629   1.096244  -0.001258   0.000292
 -2.373240   0.926533   3.981978   2.252999   0.296027   0.419363  -3.986151   0.023877  -0.076312  -1.387213  -1.117364   0.443339  -0.157229   0.688386  -0.260291   1.803686  -2.184249  10.269830   7.260840   4.849156  20.579559   0.106817   4.471487  -0.018601   3.180008  -0.837610  -4.821269   1.365381   2.253630  -9.340994   7.784538  -3.198630 -21.085309   0.111267  -5.144754   0.021763   3.148820  -0.076713   3.608676  -3.229466   0.871104  -3.018650   4.976262   0.009877   0.002376  -4.083344  -1.107583   0.172561  -0.831483  -0.001394  -0.000172  -2.290468  -1.325483   0.709573   3.523322  -0.002774  -0.002096  -4.726224   1.414809   0.621891   1.241371  -0.001465   0.000300
 -2.372731   0.923497   3.982390   2.491606   0.247821   0.444920  -4.304387   0.043238   0.026022  -1.605338  -1.249348   0.467025  -0.363062   0.679742  -0.317784   2.024927  -2.244042  11.298909   8.230010   5.826796  23.782225   0.113268   5.163258  -0.021363   3.552586  -0.762502  -3.611858   1.550121   2.487005 -10.221468   8.594351  -3.914221 -24.240332   0.112864  -5.820253   0.022753   3.495996  -0.363418   2.337286  -3.621970   0.872714  -3.425342   5.585781   0.009937   0.001305  -4.439965  -1.271288   0.338055  -0.813037  -0.001079  -0.000174  -2.429725  -1.364559   0.834432   3.429277  -0.002091  -0.001614  -4.944274   1.547039   0.785211   1.387381  -0.001556   0.000304
 -2.372255   0.919397   3.982597   2.716311   0.205981   0.466712  -4.564373   0.066107   0.128416  -1.788727  -1.365907   0.497510  -0.549965   0.671112  -0.372835   2.213032  -2.259389  12.167095   9.073527   6.813024  26.694539   0.114554   5.821069  -0.023202   3.918220  -0.615018  -2.578460   1.708571   2.673836 -10.934655   9.305911  -4.637872 -27.098759   0.110317  -6.458970   0.023178   3.829264  -0.688929   1.266494  -3.992109   0.875746  -3.777941   6.147468   0.009570   0.000537  -4.772616  -1.424784   0.491683  -0.794662  -0.000834  -0.000172  -2.606647  -1.401281   0.921021   3.312254  -0.001556  -0.001218  -5.149457   1.669382   0.937943   1.519850  -0.001531   0.000303
